<mxfile host="www.draw.io" modified="2020-04-25T15:07:39.377Z" agent="5.0 (Macintosh; Intel Mac OS X 10_13_1) AppleWebKit/537.36 (KHTML, like Gecko) Chrome/80.0.3987.163 Safari/537.36" etag="rztXCReFpM1gPkn0wy5K" version="13.0.1" type="github">
  <diagram id="yjUITnQ-tmyrhOZyhQca" name="第 1 页">
    <mxGraphModel dx="946" dy="614" grid="1" gridSize="10" guides="1" tooltips="1" connect="1" arrows="1" fold="1" page="1" pageScale="1" pageWidth="3300" pageHeight="4681" math="0" shadow="0">
      <root>
        <mxCell id="0" />
        <mxCell id="1" parent="0" />
        <mxCell id="-NxkGsRACNTF0rix0MUK-18" value="" style="rounded=0;whiteSpace=wrap;html=1;dashed=1;fillColor=#e1d5e7;strokeColor=#9673a6;" vertex="1" parent="1">
          <mxGeometry x="360" y="174" width="337" height="50" as="geometry" />
        </mxCell>
        <mxCell id="-NxkGsRACNTF0rix0MUK-17" value="" style="rounded=0;whiteSpace=wrap;html=1;dashed=1;fillColor=#f5f5f5;strokeColor=#666666;fontColor=#333333;" vertex="1" parent="1">
          <mxGeometry x="360" y="420" width="337" height="110" as="geometry" />
        </mxCell>
        <mxCell id="-NxkGsRACNTF0rix0MUK-16" value="" style="rounded=0;whiteSpace=wrap;html=1;dashed=1;fillColor=#fff2cc;strokeColor=#d6b656;" vertex="1" parent="1">
          <mxGeometry x="360" y="236" width="337" height="170" as="geometry" />
        </mxCell>
        <mxCell id="-NxkGsRACNTF0rix0MUK-1" value="&lt;span style=&quot;font-family: &amp;#34;hei&amp;#34; ; font-size: 13px&quot;&gt;Load&amp;nbsp;&lt;/span&gt;&lt;font face=&quot;hei&quot;&gt;&lt;span style=&quot;font-size: 13px&quot;&gt;Balancer&lt;/span&gt;&lt;/font&gt;" style="rounded=1;whiteSpace=wrap;html=1;" vertex="1" parent="1">
          <mxGeometry x="420" y="180" width="270" height="40" as="geometry" />
        </mxCell>
        <mxCell id="-NxkGsRACNTF0rix0MUK-2" value="Gateway" style="rounded=1;whiteSpace=wrap;html=1;" vertex="1" parent="1">
          <mxGeometry x="420" y="240" width="270" height="40" as="geometry" />
        </mxCell>
        <mxCell id="-NxkGsRACNTF0rix0MUK-4" value="Info" style="rounded=1;whiteSpace=wrap;html=1;" vertex="1" parent="1">
          <mxGeometry x="420" y="300" width="120" height="40" as="geometry" />
        </mxCell>
        <mxCell id="-NxkGsRACNTF0rix0MUK-7" value="Mall" style="rounded=1;whiteSpace=wrap;html=1;" vertex="1" parent="1">
          <mxGeometry x="570" y="300" width="120" height="40" as="geometry" />
        </mxCell>
        <mxCell id="-NxkGsRACNTF0rix0MUK-8" value="Info" style="rounded=1;whiteSpace=wrap;html=1;" vertex="1" parent="1">
          <mxGeometry x="420" y="360" width="120" height="40" as="geometry" />
        </mxCell>
        <mxCell id="-NxkGsRACNTF0rix0MUK-9" value="Mall" style="rounded=1;whiteSpace=wrap;html=1;" vertex="1" parent="1">
          <mxGeometry x="570" y="360" width="120" height="40" as="geometry" />
        </mxCell>
        <mxCell id="-NxkGsRACNTF0rix0MUK-13" value="Config" style="rounded=1;whiteSpace=wrap;html=1;" vertex="1" parent="1">
          <mxGeometry x="420" y="426" width="120" height="40" as="geometry" />
        </mxCell>
        <mxCell id="-NxkGsRACNTF0rix0MUK-14" value="Cache" style="rounded=1;whiteSpace=wrap;html=1;" vertex="1" parent="1">
          <mxGeometry x="570" y="426" width="120" height="40" as="geometry" />
        </mxCell>
        <mxCell id="-NxkGsRACNTF0rix0MUK-15" value="DB" style="rounded=1;whiteSpace=wrap;html=1;" vertex="1" parent="1">
          <mxGeometry x="420" y="486" width="270" height="40" as="geometry" />
        </mxCell>
        <mxCell id="-NxkGsRACNTF0rix0MUK-19" value="负载域" style="text;html=1;strokeColor=none;fillColor=none;align=center;verticalAlign=middle;whiteSpace=wrap;rounded=0;dashed=1;fontStyle=1" vertex="1" parent="1">
          <mxGeometry x="370" y="190" width="40" height="20" as="geometry" />
        </mxCell>
        <mxCell id="-NxkGsRACNTF0rix0MUK-20" value="应用域" style="text;html=1;strokeColor=none;fillColor=none;align=center;verticalAlign=middle;whiteSpace=wrap;rounded=0;dashed=1;fontStyle=1" vertex="1" parent="1">
          <mxGeometry x="370" y="310" width="40" height="20" as="geometry" />
        </mxCell>
        <mxCell id="-NxkGsRACNTF0rix0MUK-21" value="基础域" style="text;html=1;strokeColor=none;fillColor=none;align=center;verticalAlign=middle;whiteSpace=wrap;rounded=0;dashed=1;fontStyle=1" vertex="1" parent="1">
          <mxGeometry x="370" y="465" width="40" height="20" as="geometry" />
        </mxCell>
      </root>
    </mxGraphModel>
  </diagram>
</mxfile>
